<mxfile host="app.diagrams.net" modified="2023-12-10T11:11:38.269Z" agent="Mozilla/5.0 (Macintosh; Intel Mac OS X 10_15_7) AppleWebKit/537.36 (KHTML, like Gecko) Chrome/119.0.0.0 Safari/537.36" etag="jRNtTuKwuYy6S7J7FtsT" version="22.1.7" type="github">
  <diagram name="第 1 页" id="IkOrepY5Euh00PDli3mC">
    <mxGraphModel dx="1434" dy="789" grid="0" gridSize="10" guides="1" tooltips="1" connect="1" arrows="1" fold="1" page="0" pageScale="1" pageWidth="1200" pageHeight="1920" math="0" shadow="0">
      <root>
        <mxCell id="0" />
        <mxCell id="1" parent="0" />
        <mxCell id="Xmc8SoNWgKXZmehfMHRh-2" value="" style="edgeStyle=orthogonalEdgeStyle;rounded=0;orthogonalLoop=1;jettySize=auto;html=1;strokeColor=default;endArrow=none;endFill=0;" edge="1" parent="1" source="Xmc8SoNWgKXZmehfMHRh-3" target="Xmc8SoNWgKXZmehfMHRh-4">
          <mxGeometry relative="1" as="geometry" />
        </mxCell>
        <mxCell id="Xmc8SoNWgKXZmehfMHRh-3" value="-" style="ellipse;whiteSpace=wrap;html=1;aspect=fixed;" vertex="1" parent="1">
          <mxGeometry x="512" y="127" width="37" height="37" as="geometry" />
        </mxCell>
        <mxCell id="Xmc8SoNWgKXZmehfMHRh-4" value="a" style="ellipse;whiteSpace=wrap;html=1;aspect=fixed;" vertex="1" parent="1">
          <mxGeometry x="512" y="205" width="37" height="37" as="geometry" />
        </mxCell>
        <mxCell id="Xmc8SoNWgKXZmehfMHRh-5" value="" style="rounded=0;orthogonalLoop=1;jettySize=auto;html=1;strokeColor=default;endArrow=none;endFill=0;exitX=0;exitY=1;exitDx=0;exitDy=0;" edge="1" parent="1" source="Xmc8SoNWgKXZmehfMHRh-4" target="Xmc8SoNWgKXZmehfMHRh-6">
          <mxGeometry relative="1" as="geometry">
            <mxPoint x="514" y="249" as="sourcePoint" />
          </mxGeometry>
        </mxCell>
        <mxCell id="Xmc8SoNWgKXZmehfMHRh-6" value="b" style="ellipse;whiteSpace=wrap;html=1;aspect=fixed;" vertex="1" parent="1">
          <mxGeometry x="434" y="244.99999999999997" width="37" height="37" as="geometry" />
        </mxCell>
        <mxCell id="Xmc8SoNWgKXZmehfMHRh-7" value="" style="rounded=0;orthogonalLoop=1;jettySize=auto;html=1;strokeColor=default;endArrow=none;endFill=0;exitX=1;exitY=1;exitDx=0;exitDy=0;" edge="1" parent="1" source="Xmc8SoNWgKXZmehfMHRh-4" target="Xmc8SoNWgKXZmehfMHRh-8">
          <mxGeometry relative="1" as="geometry">
            <mxPoint x="559" y="270" as="sourcePoint" />
          </mxGeometry>
        </mxCell>
        <mxCell id="Xmc8SoNWgKXZmehfMHRh-8" value="c" style="ellipse;whiteSpace=wrap;html=1;aspect=fixed;" vertex="1" parent="1">
          <mxGeometry x="632" y="245" width="37" height="37" as="geometry" />
        </mxCell>
        <mxCell id="Xmc8SoNWgKXZmehfMHRh-9" value="" style="rounded=0;orthogonalLoop=1;jettySize=auto;html=1;strokeColor=default;endArrow=none;endFill=0;exitX=0;exitY=1;exitDx=0;exitDy=0;" edge="1" parent="1" source="Xmc8SoNWgKXZmehfMHRh-6" target="Xmc8SoNWgKXZmehfMHRh-10">
          <mxGeometry relative="1" as="geometry">
            <mxPoint x="437" y="319" as="sourcePoint" />
          </mxGeometry>
        </mxCell>
        <mxCell id="Xmc8SoNWgKXZmehfMHRh-10" value="c" style="ellipse;whiteSpace=wrap;html=1;aspect=fixed;" vertex="1" parent="1">
          <mxGeometry x="272.5" y="312" width="37" height="37" as="geometry" />
        </mxCell>
        <mxCell id="Xmc8SoNWgKXZmehfMHRh-11" value="" style="rounded=0;orthogonalLoop=1;jettySize=auto;html=1;strokeColor=default;endArrow=none;endFill=0;exitX=0.5;exitY=1;exitDx=0;exitDy=0;" edge="1" parent="1" source="Xmc8SoNWgKXZmehfMHRh-6" target="Xmc8SoNWgKXZmehfMHRh-12">
          <mxGeometry relative="1" as="geometry">
            <mxPoint x="494" y="364" as="sourcePoint" />
          </mxGeometry>
        </mxCell>
        <mxCell id="Xmc8SoNWgKXZmehfMHRh-12" value="d" style="ellipse;whiteSpace=wrap;html=1;aspect=fixed;" vertex="1" parent="1">
          <mxGeometry x="434" y="312" width="37" height="37" as="geometry" />
        </mxCell>
        <mxCell id="Xmc8SoNWgKXZmehfMHRh-13" value="" style="rounded=0;orthogonalLoop=1;jettySize=auto;html=1;strokeColor=default;endArrow=none;endFill=0;exitX=1;exitY=1;exitDx=0;exitDy=0;" edge="1" parent="1" source="Xmc8SoNWgKXZmehfMHRh-6" target="Xmc8SoNWgKXZmehfMHRh-14">
          <mxGeometry relative="1" as="geometry">
            <mxPoint x="526.5814754519513" y="312.0014754519513" as="sourcePoint" />
          </mxGeometry>
        </mxCell>
        <mxCell id="Xmc8SoNWgKXZmehfMHRh-14" value="e" style="ellipse;whiteSpace=wrap;html=1;aspect=fixed;" vertex="1" parent="1">
          <mxGeometry x="525" y="312" width="37" height="37" as="geometry" />
        </mxCell>
        <mxCell id="Xmc8SoNWgKXZmehfMHRh-15" value="" style="rounded=0;orthogonalLoop=1;jettySize=auto;html=1;strokeColor=default;endArrow=none;endFill=0;exitX=0.5;exitY=1;exitDx=0;exitDy=0;" edge="1" parent="1" source="Xmc8SoNWgKXZmehfMHRh-8" target="Xmc8SoNWgKXZmehfMHRh-16">
          <mxGeometry relative="1" as="geometry">
            <mxPoint x="614" y="286" as="sourcePoint" />
          </mxGeometry>
        </mxCell>
        <mxCell id="Xmc8SoNWgKXZmehfMHRh-16" value="b" style="ellipse;whiteSpace=wrap;html=1;aspect=fixed;" vertex="1" parent="1">
          <mxGeometry x="632.5" y="315" width="37" height="37" as="geometry" />
        </mxCell>
        <mxCell id="Xmc8SoNWgKXZmehfMHRh-17" value="" style="rounded=0;orthogonalLoop=1;jettySize=auto;html=1;strokeColor=default;endArrow=none;endFill=0;exitX=0;exitY=1;exitDx=0;exitDy=0;" edge="1" parent="1" source="Xmc8SoNWgKXZmehfMHRh-10" target="Xmc8SoNWgKXZmehfMHRh-18">
          <mxGeometry relative="1" as="geometry">
            <mxPoint x="372.4185245480487" y="352.0014754519513" as="sourcePoint" />
          </mxGeometry>
        </mxCell>
        <mxCell id="Xmc8SoNWgKXZmehfMHRh-18" value="d" style="ellipse;whiteSpace=wrap;html=1;aspect=fixed;" vertex="1" parent="1">
          <mxGeometry x="239" y="395.26" width="37" height="37" as="geometry" />
        </mxCell>
        <mxCell id="Xmc8SoNWgKXZmehfMHRh-19" value="" style="rounded=0;orthogonalLoop=1;jettySize=auto;html=1;strokeColor=default;endArrow=none;endFill=0;exitX=1;exitY=1;exitDx=0;exitDy=0;" edge="1" parent="1" source="Xmc8SoNWgKXZmehfMHRh-10" target="Xmc8SoNWgKXZmehfMHRh-20">
          <mxGeometry relative="1" as="geometry">
            <mxPoint x="423.5814754519513" y="310.0014754519513" as="sourcePoint" />
          </mxGeometry>
        </mxCell>
        <mxCell id="Xmc8SoNWgKXZmehfMHRh-20" value="e" style="ellipse;whiteSpace=wrap;html=1;aspect=fixed;" vertex="1" parent="1">
          <mxGeometry x="306" y="395.26" width="37" height="37" as="geometry" />
        </mxCell>
        <mxCell id="Xmc8SoNWgKXZmehfMHRh-21" value="" style="rounded=0;orthogonalLoop=1;jettySize=auto;html=1;strokeColor=default;endArrow=none;endFill=0;exitX=0.5;exitY=1;exitDx=0;exitDy=0;" edge="1" parent="1" source="Xmc8SoNWgKXZmehfMHRh-18" target="Xmc8SoNWgKXZmehfMHRh-22">
          <mxGeometry relative="1" as="geometry">
            <mxPoint x="389" y="416" as="sourcePoint" />
          </mxGeometry>
        </mxCell>
        <mxCell id="Xmc8SoNWgKXZmehfMHRh-22" value="b" style="ellipse;whiteSpace=wrap;html=1;aspect=fixed;" vertex="1" parent="1">
          <mxGeometry x="241" y="469.26" width="37" height="37" as="geometry" />
        </mxCell>
        <mxCell id="Xmc8SoNWgKXZmehfMHRh-23" value="" style="rounded=0;orthogonalLoop=1;jettySize=auto;html=1;strokeColor=default;endArrow=none;endFill=0;exitX=0.5;exitY=1;exitDx=0;exitDy=0;" edge="1" parent="1" source="Xmc8SoNWgKXZmehfMHRh-22" target="Xmc8SoNWgKXZmehfMHRh-24">
          <mxGeometry relative="1" as="geometry">
            <mxPoint x="346" y="491.84000000000003" as="sourcePoint" />
          </mxGeometry>
        </mxCell>
        <mxCell id="Xmc8SoNWgKXZmehfMHRh-24" value="e" style="ellipse;whiteSpace=wrap;html=1;aspect=fixed;" vertex="1" parent="1">
          <mxGeometry x="241" y="534.0999999999999" width="37" height="37" as="geometry" />
        </mxCell>
        <mxCell id="Xmc8SoNWgKXZmehfMHRh-25" value="" style="rounded=0;orthogonalLoop=1;jettySize=auto;html=1;strokeColor=default;endArrow=none;endFill=0;exitX=0;exitY=1;exitDx=0;exitDy=0;" edge="1" parent="1" source="Xmc8SoNWgKXZmehfMHRh-12" target="Xmc8SoNWgKXZmehfMHRh-26">
          <mxGeometry relative="1" as="geometry">
            <mxPoint x="441.5" y="349" as="sourcePoint" />
          </mxGeometry>
        </mxCell>
        <mxCell id="Xmc8SoNWgKXZmehfMHRh-26" value="b" style="ellipse;whiteSpace=wrap;html=1;aspect=fixed;" vertex="1" parent="1">
          <mxGeometry x="393" y="395.26" width="37" height="37" as="geometry" />
        </mxCell>
        <mxCell id="Xmc8SoNWgKXZmehfMHRh-27" value="" style="rounded=0;orthogonalLoop=1;jettySize=auto;html=1;strokeColor=default;endArrow=none;endFill=0;exitX=1;exitY=1;exitDx=0;exitDy=0;" edge="1" parent="1" source="Xmc8SoNWgKXZmehfMHRh-12" target="Xmc8SoNWgKXZmehfMHRh-28">
          <mxGeometry relative="1" as="geometry">
            <mxPoint x="468.5" y="349" as="sourcePoint" />
          </mxGeometry>
        </mxCell>
        <mxCell id="Xmc8SoNWgKXZmehfMHRh-28" value="c" style="ellipse;whiteSpace=wrap;html=1;aspect=fixed;" vertex="1" parent="1">
          <mxGeometry x="471" y="395.26" width="37" height="37" as="geometry" />
        </mxCell>
        <mxCell id="Xmc8SoNWgKXZmehfMHRh-29" value="" style="rounded=0;orthogonalLoop=1;jettySize=auto;html=1;strokeColor=default;endArrow=none;endFill=0;exitX=0.5;exitY=1;exitDx=0;exitDy=0;" edge="1" parent="1" source="Xmc8SoNWgKXZmehfMHRh-26" target="Xmc8SoNWgKXZmehfMHRh-30">
          <mxGeometry relative="1" as="geometry">
            <mxPoint x="412" y="427" as="sourcePoint" />
          </mxGeometry>
        </mxCell>
        <mxCell id="Xmc8SoNWgKXZmehfMHRh-30" value="e" style="ellipse;whiteSpace=wrap;html=1;aspect=fixed;" vertex="1" parent="1">
          <mxGeometry x="361" y="469.26" width="37" height="37" as="geometry" />
        </mxCell>
        <mxCell id="Xmc8SoNWgKXZmehfMHRh-31" value="" style="rounded=0;orthogonalLoop=1;jettySize=auto;html=1;strokeColor=default;endArrow=none;endFill=0;exitX=0.5;exitY=1;exitDx=0;exitDy=0;" edge="1" parent="1" source="Xmc8SoNWgKXZmehfMHRh-26" target="Xmc8SoNWgKXZmehfMHRh-32">
          <mxGeometry relative="1" as="geometry">
            <mxPoint x="425" y="427" as="sourcePoint" />
          </mxGeometry>
        </mxCell>
        <mxCell id="Xmc8SoNWgKXZmehfMHRh-32" value="c" style="ellipse;whiteSpace=wrap;html=1;aspect=fixed;" vertex="1" parent="1">
          <mxGeometry x="419" y="469.26" width="37" height="37" as="geometry" />
        </mxCell>
        <mxCell id="Xmc8SoNWgKXZmehfMHRh-33" value="" style="rounded=0;orthogonalLoop=1;jettySize=auto;html=1;strokeColor=default;endArrow=none;endFill=0;exitX=0.5;exitY=1;exitDx=0;exitDy=0;" edge="1" parent="1" source="Xmc8SoNWgKXZmehfMHRh-32" target="Xmc8SoNWgKXZmehfMHRh-34">
          <mxGeometry relative="1" as="geometry">
            <mxPoint x="445" y="506.26" as="sourcePoint" />
          </mxGeometry>
        </mxCell>
        <mxCell id="Xmc8SoNWgKXZmehfMHRh-34" value="e" style="ellipse;whiteSpace=wrap;html=1;aspect=fixed;" vertex="1" parent="1">
          <mxGeometry x="419" y="534.1" width="37" height="37" as="geometry" />
        </mxCell>
        <mxCell id="Xmc8SoNWgKXZmehfMHRh-35" value="" style="rounded=0;orthogonalLoop=1;jettySize=auto;html=1;strokeColor=default;endArrow=none;endFill=0;exitX=0.5;exitY=1;exitDx=0;exitDy=0;" edge="1" parent="1" source="Xmc8SoNWgKXZmehfMHRh-28" target="Xmc8SoNWgKXZmehfMHRh-36">
          <mxGeometry relative="1" as="geometry">
            <mxPoint x="490" y="432.26" as="sourcePoint" />
          </mxGeometry>
        </mxCell>
        <mxCell id="Xmc8SoNWgKXZmehfMHRh-36" value="b" style="ellipse;whiteSpace=wrap;html=1;aspect=fixed;" vertex="1" parent="1">
          <mxGeometry x="471" y="469.26" width="37" height="37" as="geometry" />
        </mxCell>
        <mxCell id="Xmc8SoNWgKXZmehfMHRh-37" value="" style="rounded=0;orthogonalLoop=1;jettySize=auto;html=1;strokeColor=default;endArrow=none;endFill=0;exitX=0.5;exitY=1;exitDx=0;exitDy=0;" edge="1" parent="1" source="Xmc8SoNWgKXZmehfMHRh-36" target="Xmc8SoNWgKXZmehfMHRh-38">
          <mxGeometry relative="1" as="geometry">
            <mxPoint x="578" y="492.1" as="sourcePoint" />
          </mxGeometry>
        </mxCell>
        <mxCell id="Xmc8SoNWgKXZmehfMHRh-38" value="e" style="ellipse;whiteSpace=wrap;html=1;aspect=fixed;" vertex="1" parent="1">
          <mxGeometry x="471" y="534.0999999999999" width="37" height="37" as="geometry" />
        </mxCell>
        <mxCell id="Xmc8SoNWgKXZmehfMHRh-39" value="" style="rounded=0;orthogonalLoop=1;jettySize=auto;html=1;strokeColor=default;endArrow=none;endFill=0;exitX=0;exitY=1;exitDx=0;exitDy=0;" edge="1" parent="1" source="Xmc8SoNWgKXZmehfMHRh-16" target="Xmc8SoNWgKXZmehfMHRh-40">
          <mxGeometry relative="1" as="geometry">
            <mxPoint x="642" y="344" as="sourcePoint" />
          </mxGeometry>
        </mxCell>
        <mxCell id="Xmc8SoNWgKXZmehfMHRh-40" value="d" style="ellipse;whiteSpace=wrap;html=1;aspect=fixed;" vertex="1" parent="1">
          <mxGeometry x="603" y="395.26" width="37" height="37" as="geometry" />
        </mxCell>
        <mxCell id="Xmc8SoNWgKXZmehfMHRh-41" value="" style="rounded=0;orthogonalLoop=1;jettySize=auto;html=1;strokeColor=default;endArrow=none;endFill=0;exitX=0.5;exitY=1;exitDx=0;exitDy=0;" edge="1" parent="1" source="Xmc8SoNWgKXZmehfMHRh-40" target="Xmc8SoNWgKXZmehfMHRh-42">
          <mxGeometry relative="1" as="geometry">
            <mxPoint x="753" y="416" as="sourcePoint" />
          </mxGeometry>
        </mxCell>
        <mxCell id="Xmc8SoNWgKXZmehfMHRh-42" value="b" style="ellipse;whiteSpace=wrap;html=1;aspect=fixed;" vertex="1" parent="1">
          <mxGeometry x="605" y="469.26" width="37" height="37" as="geometry" />
        </mxCell>
        <mxCell id="Xmc8SoNWgKXZmehfMHRh-43" value="" style="rounded=0;orthogonalLoop=1;jettySize=auto;html=1;strokeColor=default;endArrow=none;endFill=0;exitX=0.5;exitY=1;exitDx=0;exitDy=0;" edge="1" parent="1" source="Xmc8SoNWgKXZmehfMHRh-42" target="Xmc8SoNWgKXZmehfMHRh-44">
          <mxGeometry relative="1" as="geometry">
            <mxPoint x="710" y="491.84000000000003" as="sourcePoint" />
          </mxGeometry>
        </mxCell>
        <mxCell id="Xmc8SoNWgKXZmehfMHRh-44" value="e" style="ellipse;whiteSpace=wrap;html=1;aspect=fixed;" vertex="1" parent="1">
          <mxGeometry x="605" y="534.0999999999999" width="37" height="37" as="geometry" />
        </mxCell>
        <mxCell id="Xmc8SoNWgKXZmehfMHRh-45" value="" style="rounded=0;orthogonalLoop=1;jettySize=auto;html=1;strokeColor=default;endArrow=none;endFill=0;exitX=1;exitY=1;exitDx=0;exitDy=0;" edge="1" parent="1" source="Xmc8SoNWgKXZmehfMHRh-16" target="Xmc8SoNWgKXZmehfMHRh-46">
          <mxGeometry relative="1" as="geometry">
            <mxPoint x="703" y="367.15999999999997" as="sourcePoint" />
          </mxGeometry>
        </mxCell>
        <mxCell id="Xmc8SoNWgKXZmehfMHRh-46" value="e" style="ellipse;whiteSpace=wrap;html=1;aspect=fixed;" vertex="1" parent="1">
          <mxGeometry x="669.5" y="395.2599999999999" width="37" height="37" as="geometry" />
        </mxCell>
        <mxCell id="Xmc8SoNWgKXZmehfMHRh-47" value="" style="ellipse;whiteSpace=wrap;html=1;aspect=fixed;labelBackgroundColor=#000000;fillColor=#000000;" vertex="1" parent="1">
          <mxGeometry x="255" y="599" width="9" height="9" as="geometry" />
        </mxCell>
        <mxCell id="Xmc8SoNWgKXZmehfMHRh-48" value="" style="rounded=0;orthogonalLoop=1;jettySize=auto;html=1;strokeColor=default;endArrow=none;endFill=0;exitX=0.5;exitY=1;exitDx=0;exitDy=0;entryX=0.5;entryY=0;entryDx=0;entryDy=0;" edge="1" parent="1" source="Xmc8SoNWgKXZmehfMHRh-24" target="Xmc8SoNWgKXZmehfMHRh-47">
          <mxGeometry relative="1" as="geometry">
            <mxPoint x="290" y="536" as="sourcePoint" />
            <mxPoint x="290" y="564" as="targetPoint" />
          </mxGeometry>
        </mxCell>
        <mxCell id="Xmc8SoNWgKXZmehfMHRh-49" value="" style="ellipse;whiteSpace=wrap;html=1;aspect=fixed;labelBackgroundColor=#000000;fillColor=#000000;direction=south;" vertex="1" parent="1">
          <mxGeometry x="320" y="460.26" width="9" height="9" as="geometry" />
        </mxCell>
        <mxCell id="Xmc8SoNWgKXZmehfMHRh-50" value="" style="rounded=0;orthogonalLoop=1;jettySize=auto;html=1;strokeColor=default;endArrow=none;endFill=0;exitX=0.5;exitY=1;exitDx=0;exitDy=0;entryX=0;entryY=0.5;entryDx=0;entryDy=0;" edge="1" parent="1" source="Xmc8SoNWgKXZmehfMHRh-20" target="Xmc8SoNWgKXZmehfMHRh-49">
          <mxGeometry relative="1" as="geometry">
            <mxPoint x="270" y="581" as="sourcePoint" />
            <mxPoint x="270" y="609" as="targetPoint" />
          </mxGeometry>
        </mxCell>
        <mxCell id="Xmc8SoNWgKXZmehfMHRh-51" value="" style="ellipse;whiteSpace=wrap;html=1;aspect=fixed;labelBackgroundColor=#000000;fillColor=#000000;direction=south;" vertex="1" parent="1">
          <mxGeometry x="375" y="534.26" width="9" height="9" as="geometry" />
        </mxCell>
        <mxCell id="Xmc8SoNWgKXZmehfMHRh-52" value="" style="rounded=0;orthogonalLoop=1;jettySize=auto;html=1;strokeColor=default;endArrow=none;endFill=0;entryX=0;entryY=0.5;entryDx=0;entryDy=0;" edge="1" parent="1" source="Xmc8SoNWgKXZmehfMHRh-30" target="Xmc8SoNWgKXZmehfMHRh-51">
          <mxGeometry relative="1" as="geometry">
            <mxPoint x="380" y="506" as="sourcePoint" />
            <mxPoint x="325" y="683" as="targetPoint" />
          </mxGeometry>
        </mxCell>
        <mxCell id="Xmc8SoNWgKXZmehfMHRh-53" value="" style="ellipse;whiteSpace=wrap;html=1;aspect=fixed;labelBackgroundColor=#000000;fillColor=#000000;direction=south;" vertex="1" parent="1">
          <mxGeometry x="434" y="599" width="9" height="9" as="geometry" />
        </mxCell>
        <mxCell id="Xmc8SoNWgKXZmehfMHRh-54" value="" style="ellipse;whiteSpace=wrap;html=1;aspect=fixed;labelBackgroundColor=#000000;fillColor=#000000;direction=south;" vertex="1" parent="1">
          <mxGeometry x="485" y="599" width="9" height="9" as="geometry" />
        </mxCell>
        <mxCell id="Xmc8SoNWgKXZmehfMHRh-55" value="" style="ellipse;whiteSpace=wrap;html=1;aspect=fixed;labelBackgroundColor=#000000;fillColor=#000000;direction=south;" vertex="1" parent="1">
          <mxGeometry x="539" y="377" width="9" height="9" as="geometry" />
        </mxCell>
        <mxCell id="Xmc8SoNWgKXZmehfMHRh-56" value="" style="ellipse;whiteSpace=wrap;html=1;aspect=fixed;labelBackgroundColor=#000000;fillColor=#000000;direction=south;" vertex="1" parent="1">
          <mxGeometry x="619" y="599" width="9" height="9" as="geometry" />
        </mxCell>
        <mxCell id="Xmc8SoNWgKXZmehfMHRh-57" value="" style="ellipse;whiteSpace=wrap;html=1;aspect=fixed;labelBackgroundColor=#000000;fillColor=#000000;direction=south;" vertex="1" parent="1">
          <mxGeometry x="683.5" y="460.26" width="9" height="9" as="geometry" />
        </mxCell>
        <mxCell id="Xmc8SoNWgKXZmehfMHRh-58" value="" style="rounded=0;orthogonalLoop=1;jettySize=auto;html=1;strokeColor=default;endArrow=none;endFill=0;entryX=0;entryY=0.5;entryDx=0;entryDy=0;exitX=0.5;exitY=1;exitDx=0;exitDy=0;" edge="1" parent="1" source="Xmc8SoNWgKXZmehfMHRh-14" target="Xmc8SoNWgKXZmehfMHRh-55">
          <mxGeometry relative="1" as="geometry">
            <mxPoint x="390" y="516" as="sourcePoint" />
            <mxPoint x="390" y="544" as="targetPoint" />
          </mxGeometry>
        </mxCell>
        <mxCell id="Xmc8SoNWgKXZmehfMHRh-59" value="" style="rounded=0;orthogonalLoop=1;jettySize=auto;html=1;strokeColor=default;endArrow=none;endFill=0;entryX=0;entryY=0.5;entryDx=0;entryDy=0;exitX=0.5;exitY=1;exitDx=0;exitDy=0;" edge="1" parent="1" source="Xmc8SoNWgKXZmehfMHRh-34" target="Xmc8SoNWgKXZmehfMHRh-53">
          <mxGeometry relative="1" as="geometry">
            <mxPoint x="400" y="526" as="sourcePoint" />
            <mxPoint x="400" y="554" as="targetPoint" />
          </mxGeometry>
        </mxCell>
        <mxCell id="Xmc8SoNWgKXZmehfMHRh-60" value="" style="rounded=0;orthogonalLoop=1;jettySize=auto;html=1;strokeColor=default;endArrow=none;endFill=0;entryX=0;entryY=0.5;entryDx=0;entryDy=0;exitX=0.5;exitY=1;exitDx=0;exitDy=0;" edge="1" parent="1" source="Xmc8SoNWgKXZmehfMHRh-38" target="Xmc8SoNWgKXZmehfMHRh-54">
          <mxGeometry relative="1" as="geometry">
            <mxPoint x="410" y="536" as="sourcePoint" />
            <mxPoint x="410" y="564" as="targetPoint" />
          </mxGeometry>
        </mxCell>
        <mxCell id="Xmc8SoNWgKXZmehfMHRh-61" value="" style="rounded=0;orthogonalLoop=1;jettySize=auto;html=1;strokeColor=default;endArrow=none;endFill=0;entryX=0;entryY=0.5;entryDx=0;entryDy=0;exitX=0.5;exitY=1;exitDx=0;exitDy=0;" edge="1" parent="1" source="Xmc8SoNWgKXZmehfMHRh-44" target="Xmc8SoNWgKXZmehfMHRh-56">
          <mxGeometry relative="1" as="geometry">
            <mxPoint x="430" y="556" as="sourcePoint" />
            <mxPoint x="430" y="584" as="targetPoint" />
          </mxGeometry>
        </mxCell>
        <mxCell id="Xmc8SoNWgKXZmehfMHRh-62" value="" style="rounded=0;orthogonalLoop=1;jettySize=auto;html=1;strokeColor=default;endArrow=none;endFill=0;entryX=0;entryY=0.5;entryDx=0;entryDy=0;exitX=0.5;exitY=1;exitDx=0;exitDy=0;" edge="1" parent="1" source="Xmc8SoNWgKXZmehfMHRh-46" target="Xmc8SoNWgKXZmehfMHRh-57">
          <mxGeometry relative="1" as="geometry">
            <mxPoint x="634" y="581" as="sourcePoint" />
            <mxPoint x="634" y="609" as="targetPoint" />
          </mxGeometry>
        </mxCell>
      </root>
    </mxGraphModel>
  </diagram>
</mxfile>
